<?xml version="1.0" encoding="utf-8"?>
<!-- Generator: Adobe Illustrator 16.0.0, SVG Export Plug-In . SVG Version: 6.00 Build 0)  -->
<!DOCTYPE svg PUBLIC "-//W3C//DTD SVG 1.1//EN" "http://www.w3.org/Graphics/SVG/1.1/DTD/svg11.dtd">
<svg version="1.1" id="Ebene_1" xmlns="http://www.w3.org/2000/svg" xmlns:xlink="http://www.w3.org/1999/xlink" x="0px" y="0px"
	 width="38px" height="89px" viewBox="0 0 38 89" enable-background="new 0 0 38 89" xml:space="preserve">
<path fill="#89BCD9" d="M17.586,24.583l-6.912,6.304c-0.382,0.348-0.967,0.348-1.348,0l-0.516-0.471
	c-0.436-0.396-0.436-1.082,0-1.479l9.516-8.677c0.382-0.349,0.966-0.349,1.347,0l9.516,8.677c0.436,0.396,0.436,1.082,0,1.479
	l-0.516,0.471c-0.381,0.348-0.966,0.348-1.347,0l-6.913-6.304v44.064c0,0.552-0.447,1-1,1h-0.828c-0.553,0-1-0.448-1-1V24.583z"/>
<path fill="none" stroke="#89BCD9" d="M19,0.5L19,0.5c10.217,0,18.5,8.283,18.5,18.5v51c0,10.217-8.283,18.5-18.5,18.5l0,0
	C8.783,88.5,0.5,80.217,0.5,70V19C0.5,8.783,8.783,0.5,19,0.5z"/>
</svg>
