<?xml version="1.0" encoding="utf-8"?>
<!-- Generator: Adobe Illustrator 16.0.0, SVG Export Plug-In . SVG Version: 6.00 Build 0)  -->
<!DOCTYPE svg PUBLIC "-//W3C//DTD SVG 1.1//EN" "http://www.w3.org/Graphics/SVG/1.1/DTD/svg11.dtd">
<svg version="1.1" id="Ebene_1" xmlns="http://www.w3.org/2000/svg" xmlns:xlink="http://www.w3.org/1999/xlink" x="0px" y="0px"
	 width="20px" height="18px" viewBox="0 0 20 18" enable-background="new 0 0 20 18" xml:space="preserve">
<defs>
	<filter id="Adobe_OpacityMaskFilter" filterUnits="userSpaceOnUse" x="0" y="0" width="19.999" height="18">
		<feColorMatrix  type="matrix" values="1 0 0 0 0  0 1 0 0 0  0 0 1 0 0  0 0 0 1 0"/>
	</filter>
</defs>
<mask maskUnits="userSpaceOnUse" x="0" y="0" width="19.999" height="18" id="mask0_64192_1483_1_">
	<rect x="-1.954" y="-2.375" fill="#797EF3" filter="url(#Adobe_OpacityMaskFilter)" width="24.912" height="24.749"/>
</mask>
<g mask="url(#mask0_64192_1483_1_)">
	<g>
		<path fill="#D00000" d="M8.443,2.069L8.443,2.069c2.079,0,4.238,0.422,5.777,1.13c1.729,0.795,2.865,1.92,3.377,3.344
			c0.524,1.459,0.425,3.317-0.291,5.375c-0.608,1.747-1.733,2.946-3.348,3.565c-0.771,0.297-1.629,0.447-2.551,0.447
			c-1.031,0-2.101-0.188-3.179-0.56c-1.885-0.647-3.729-2.394-4.936-4.673C2.103,8.453,1.754,6.071,2.361,4.331
			c0.361-1.034,1.984-1.857,4.234-2.148C7.187,2.108,7.808,2.069,8.443,2.069 M8.443,0C7.731,0,7.022,0.043,6.333,0.132
			c-3.056,0.394-5.263,1.62-5.925,3.519c-0.83,2.381-0.355,5.353,1.056,8.018c1.409,2.66,3.653,4.822,6.091,5.66
			C8.869,17.78,10.171,18,11.408,18c1.175,0,2.288-0.198,3.294-0.585c2.047-0.785,3.707-2.373,4.559-4.816
			c0.896-2.576,0.961-4.873,0.283-6.756c-0.67-1.864-2.107-3.441-4.459-4.523C13.261,0.481,10.831,0,8.443,0L8.443,0z"/>
	</g>
</g>
</svg>
