<?xml version="1.0" encoding="utf-8"?>
<!-- Generator: Adobe Illustrator 16.0.0, SVG Export Plug-In . SVG Version: 6.00 Build 0)  -->
<!DOCTYPE svg PUBLIC "-//W3C//DTD SVG 1.1//EN" "http://www.w3.org/Graphics/SVG/1.1/DTD/svg11.dtd">
<svg version="1.1" id="Ebene_1" xmlns="http://www.w3.org/2000/svg" xmlns:xlink="http://www.w3.org/1999/xlink" x="0px" y="0px"
	 width="20px" height="18px" viewBox="4.43 4.75 20 18" enable-background="new 4.43 4.75 20 18" xml:space="preserve">
<g>
	<path opacity="0.35" fill="#F8F5EC" enable-background="new    " d="M10.418,21.426c-2.325-1.163-4.247-3.564-5.251-6.324
		C4.161,12.34,4.147,9.42,5.356,7.258c0.964-1.723,3.377-2.576,6.519-2.505c3.075,0.068,6.417,1.034,8.631,2.424
		c2.201,1.383,3.404,3.107,3.786,4.993c0.389,1.905-0.035,4.102-1.343,6.437c-1.24,2.221-3.16,3.498-5.345,3.954
		C15.401,23.017,12.856,22.646,10.418,21.426z"/>
	<g>
		<path fill="#89BCD9" d="M11.515,6.808L11.515,6.808c0.104,0,0.208,0.001,0.314,0.004c2.66,0.059,5.636,0.887,7.582,2.109
			c1.613,1.014,2.577,2.245,2.864,3.661c0.295,1.447-0.093,3.183-1.124,5.021c-0.888,1.59-2.222,2.58-3.963,2.942
			c-0.466,0.097-0.959,0.146-1.466,0.146c-1.421,0-2.937-0.383-4.384-1.106c-1.8-0.9-3.384-2.839-4.238-5.187
			c-0.834-2.291-0.814-4.584,0.053-6.135C7.656,7.365,9.327,6.808,11.515,6.808 M11.515,4.75c-2.964,0-5.23,0.852-6.157,2.508
			c-1.209,2.163-1.196,5.083-0.19,7.844c1.004,2.759,2.927,5.16,5.251,6.323c1.77,0.885,3.595,1.323,5.305,1.323
			c0.647,0,1.277-0.063,1.882-0.188c2.184-0.455,4.104-1.733,5.344-3.954c1.309-2.335,1.732-4.531,1.344-6.437
			c-0.383-1.886-1.585-3.61-3.786-4.993c-2.214-1.391-5.556-2.356-8.631-2.424C11.754,4.751,11.634,4.75,11.515,4.75L11.515,4.75z"
			/>
	</g>
</g>
</svg>
