<?xml version="1.0" encoding="utf-8"?>
<!-- Generator: Adobe Illustrator 16.0.0, SVG Export Plug-In . SVG Version: 6.00 Build 0)  -->
<!DOCTYPE svg PUBLIC "-//W3C//DTD SVG 1.1//EN" "http://www.w3.org/Graphics/SVG/1.1/DTD/svg11.dtd">
<svg version="1.1" id="Ebene_1" xmlns="http://www.w3.org/2000/svg" xmlns:xlink="http://www.w3.org/1999/xlink" x="0px" y="0px"
	 width="20px" height="18px" viewBox="2 3 20 18" enable-background="new 2 3 20 18" xml:space="preserve">
<g>
	<path fill="#89BCD9" d="M13.409,19.966c-1.146,0-2.33-0.207-3.517-0.615c-2.127-0.731-4.188-2.663-5.514-5.167
		C3.057,11.689,2.686,9,3.386,6.991c0.505-1.449,2.357-2.482,5.08-2.833c0.632-0.082,1.297-0.123,1.977-0.123
		c2.255,0,4.519,0.446,6.21,1.225c1.99,0.915,3.309,2.238,3.919,3.933c0.606,1.686,0.507,3.783-0.287,6.065
		c-0.704,2.019-2.07,3.469-3.951,4.191C15.442,19.792,14.459,19.966,13.409,19.966z"/>
	<path fill="#89BCD9" d="M10.442,5.069L10.442,5.069c2.08,0,4.24,0.422,5.778,1.13c1.729,0.795,2.864,1.919,3.377,3.342
		c0.525,1.461,0.425,3.321-0.29,5.375c-0.609,1.748-1.735,2.948-3.347,3.567c-0.771,0.297-1.63,0.447-2.552,0.447
		c-1.031,0-2.102-0.188-3.18-0.559c-1.886-0.648-3.731-2.396-4.937-4.673c-1.189-2.245-1.537-4.625-0.93-6.367
		c0.361-1.034,1.984-1.857,4.236-2.148C9.187,5.108,9.807,5.069,10.442,5.069 M10.442,3C9.729,3,9.021,3.043,8.333,3.132
		C5.277,3.526,3.071,4.752,2.409,6.651c-0.83,2.381-0.356,5.353,1.055,8.017c1.409,2.661,3.654,4.822,6.092,5.661
		C10.869,20.78,12.172,21,13.409,21c1.174,0,2.289-0.198,3.295-0.585c2.045-0.786,3.705-2.373,4.558-4.817
		c0.896-2.574,0.96-4.873,0.283-6.756c-0.671-1.863-2.108-3.441-4.46-4.522C15.263,3.481,12.831,3,10.442,3L10.442,3z"/>
</g>
<path fill="#F8F5EC" d="M10.245,13.23l-2.232-2.217c-0.19-0.188-0.433-0.284-0.727-0.284S6.75,10.825,6.56,11.014
	c-0.19,0.189-0.286,0.43-0.286,0.722c0,0.292,0.095,0.533,0.286,0.723l2.958,2.938c0.208,0.206,0.449,0.309,0.727,0.309
	c0.277,0,0.519-0.103,0.727-0.309l5.865-5.827c0.19-0.188,0.285-0.429,0.285-0.721s-0.095-0.533-0.285-0.722
	c-0.19-0.188-0.434-0.283-0.728-0.283s-0.535,0.095-0.726,0.283L10.245,13.23z"/>
</svg>
