<?xml version="1.0" encoding="utf-8"?>
<!-- Generator: Adobe Illustrator 16.0.0, SVG Export Plug-In . SVG Version: 6.00 Build 0)  -->
<!DOCTYPE svg PUBLIC "-//W3C//DTD SVG 1.1//EN" "http://www.w3.org/Graphics/SVG/1.1/DTD/svg11.dtd">
<svg version="1.1" id="Ebene_1" xmlns="http://www.w3.org/2000/svg" xmlns:xlink="http://www.w3.org/1999/xlink" x="0px" y="0px"
	 width="20px" height="18px" viewBox="2 3 20 18" enable-background="new 2 3 20 18" xml:space="preserve">
<g>
	<path fill="#E44C36" d="M10.442,5.069L10.442,5.069c2.08,0,4.24,0.422,5.778,1.13c1.729,0.795,2.865,1.92,3.377,3.343
		c0.525,1.461,0.425,3.319-0.29,5.373c-0.609,1.749-1.735,2.949-3.347,3.568c-0.771,0.297-1.63,0.447-2.552,0.447
		c-1.032,0-2.102-0.188-3.18-0.559c-1.884-0.648-3.729-2.395-4.936-4.671c-1.189-2.247-1.538-4.628-0.932-6.368
		c0.361-1.035,1.984-1.858,4.235-2.149C9.186,5.108,9.807,5.069,10.442,5.069 M10.442,3C9.729,3,9.02,3.043,8.332,3.132
		c-3.055,0.395-5.261,1.62-5.924,3.519c-0.829,2.38-0.354,5.353,1.057,8.018c1.409,2.66,3.653,4.821,6.091,5.66
		C10.868,20.78,12.172,21,13.409,21c1.174,0,2.289-0.198,3.295-0.585c2.045-0.786,3.705-2.373,4.558-4.818
		c0.896-2.573,0.96-4.872,0.283-6.754c-0.671-1.864-2.108-3.442-4.46-4.523C15.263,3.481,12.832,3,10.442,3L10.442,3z"/>
</g>
</svg>
