<?xml version="1.0" encoding="utf-8"?>
<!-- Generator: Adobe Illustrator 16.0.0, SVG Export Plug-In . SVG Version: 6.00 Build 0)  -->
<!DOCTYPE svg PUBLIC "-//W3C//DTD SVG 1.1//EN" "http://www.w3.org/Graphics/SVG/1.1/DTD/svg11.dtd">
<svg version="1.1" id="Ebene_1" xmlns="http://www.w3.org/2000/svg" xmlns:xlink="http://www.w3.org/1999/xlink" x="0px" y="0px"
	 width="20px" height="18px" viewBox="4.43 4.75 20 18" enable-background="new 4.43 4.75 20 18" xml:space="preserve">
<defs>
	<filter id="Adobe_OpacityMaskFilter" filterUnits="userSpaceOnUse" x="4.431" y="4.749" width="20" height="18">
		<feColorMatrix  type="matrix" values="1 0 0 0 0  0 1 0 0 0  0 0 1 0 0  0 0 0 1 0"/>
	</filter>
</defs>
<mask maskUnits="userSpaceOnUse" x="4.431" y="4.749" width="20" height="18" id="mask0_64192_1483_1_">
	<rect x="2.476" y="2.374" fill="#797EF3" filter="url(#Adobe_OpacityMaskFilter)" width="24.913" height="24.749"/>
</mask>
<g mask="url(#mask0_64192_1483_1_)">
	<g>
		<path fill="#89BCD9" d="M12.873,6.818L12.873,6.818c2.079,0,4.239,0.422,5.777,1.13c1.729,0.795,2.865,1.92,3.377,3.344
			c0.525,1.459,0.425,3.317-0.291,5.375c-0.608,1.747-1.733,2.947-3.347,3.566c-0.771,0.296-1.629,0.446-2.551,0.446
			c-1.031,0-2.101-0.188-3.18-0.559c-1.884-0.647-3.729-2.394-4.936-4.672c-1.189-2.246-1.538-4.627-0.931-6.368
			c0.361-1.034,1.984-1.857,4.235-2.148C11.617,6.857,12.238,6.818,12.873,6.818 M12.873,4.749c-0.712,0-1.421,0.043-2.109,0.132
			C7.708,5.275,5.501,6.501,4.839,8.4c-0.83,2.381-0.355,5.353,1.056,8.018c1.409,2.66,3.653,4.822,6.092,5.66
			c1.312,0.451,2.615,0.671,3.852,0.671c1.174,0,2.288-0.198,3.294-0.585c2.046-0.785,3.707-2.373,4.558-4.817
			c0.896-2.575,0.962-4.873,0.284-6.755c-0.671-1.864-2.108-3.441-4.46-4.523C17.692,5.23,15.262,4.749,12.873,4.749L12.873,4.749z"
			/>
	</g>
</g>
</svg>
