<?xml version="1.0" encoding="utf-8"?>
<!-- Generator: Adobe Illustrator 16.0.0, SVG Export Plug-In . SVG Version: 6.00 Build 0)  -->
<!DOCTYPE svg PUBLIC "-//W3C//DTD SVG 1.1//EN" "http://www.w3.org/Graphics/SVG/1.1/DTD/svg11.dtd">
<svg version="1.1" id="Ebene_1" xmlns="http://www.w3.org/2000/svg" xmlns:xlink="http://www.w3.org/1999/xlink" x="0px" y="0px"
	 width="20px" height="18px" viewBox="0 0 20 18" enable-background="new 0 0 20 18" xml:space="preserve">
<path fill="#89BCD9" d="M8.443,0C7.73,0,7.021,0.043,6.333,0.132C3.277,0.526,1.07,1.752,0.408,3.651
	c-0.83,2.381-0.355,5.353,1.056,8.018c1.409,2.66,3.653,4.822,6.091,5.66C8.869,17.779,10.171,18,11.408,18
	c1.175,0,2.287-0.197,3.294-0.585c2.047-0.785,3.707-2.373,4.56-4.815c0.896-2.576,0.961-4.874,0.282-6.755
	c-0.67-1.864-2.106-3.441-4.459-4.523C13.262,0.481,10.831,0,8.443,0L8.443,0z"/>
<polygon fill="#FFFFFF" stroke="#FFFFFF" stroke-width="0.5" stroke-miterlimit="10" points="5.35,9.629 6.065,8.913 8.629,11.478 
	13.936,5.091 14.649,5.805 8.631,12.909 "/>
</svg>
