<?xml version="1.0" encoding="utf-8"?>
<!-- Generator: Adobe Illustrator 16.0.0, SVG Export Plug-In . SVG Version: 6.00 Build 0)  -->
<!DOCTYPE svg PUBLIC "-//W3C//DTD SVG 1.1//EN" "http://www.w3.org/Graphics/SVG/1.1/DTD/svg11.dtd">
<svg version="1.1" id="a" xmlns="http://www.w3.org/2000/svg" xmlns:xlink="http://www.w3.org/1999/xlink" x="0px" y="0px"
	 width="60px" height="60px" viewBox="267.64 390.946 60 60" enable-background="new 267.64 390.946 60 60" xml:space="preserve">
<path fill="#89BCD9" d="M317.015,390.946h-38.749c-5.87,0-10.626,4.879-10.626,10.898v38.203c0,6.02,4.756,10.898,10.626,10.898
	h38.749c5.867,0,10.625-4.879,10.625-10.898v-38.203C327.64,395.824,322.882,390.946,317.015,390.946z M309.055,436.055
	c-1.769,0.042-3.379-1.046-4.04-2.728l-6.423-15.395c-0.099-0.25-0.292-0.448-0.534-0.549c-0.5-0.208-1.068,0.037-1.271,0.549
	l-3.146,7.693c-0.051,0.124-0.076,0.256-0.077,0.389c-0.002,0.566,0.443,1.026,0.993,1.028l1.688-0.013
	c2.376,0.035,4.296,1.999,4.337,4.438c0.041,2.491-1.895,4.547-4.325,4.588h-9.875c-0.578,0-1.15-0.119-1.682-0.347
	c-2.229-0.96-3.278-3.59-2.344-5.874l8.867-21.664c0.711-1.728,2.049-3.103,3.732-3.834c3.571-1.552,7.692,0.159,9.206,3.822
	l8.926,21.657c0.229,0.556,0.348,1.153,0.347,1.756C313.431,434.051,311.47,436.058,309.055,436.055z"/>
</svg>
