<?xml version="1.0" encoding="utf-8"?>
<!-- Generator: Adobe Illustrator 16.0.0, SVG Export Plug-In . SVG Version: 6.00 Build 0)  -->
<!DOCTYPE svg PUBLIC "-//W3C//DTD SVG 1.1//EN" "http://www.w3.org/Graphics/SVG/1.1/DTD/svg11.dtd">
<svg version="1.1" id="a" xmlns="http://www.w3.org/2000/svg" xmlns:xlink="http://www.w3.org/1999/xlink" x="0px" y="0px"
	 width="60px" height="60px" viewBox="267.64 390.946 60 60" enable-background="new 267.64 390.946 60 60" xml:space="preserve">
<g>
	<path fill="#89BCD9" d="M317.382,390.946h-39.484c-5.665,0-10.258,4.592-10.258,10.257v39.485c0,5.665,4.593,10.257,10.258,10.257
		h39.484c5.665,0,10.258-4.592,10.258-10.257v-39.485C327.64,395.538,323.047,390.946,317.382,390.946z M298.684,434.57
		l-1.339-4.145H287.03l-1.339,4.145h-8.035l10.313-27.749h8.979h0.002l10.015,27.749H298.684z M315.424,434.57h-7.436v-21.847h7.436
		V434.57z M311.709,412.231c-2.336,0.019-3.982-1.421-3.96-3.458c-0.022-2.038,1.627-3.478,3.96-3.458
		c2.335-0.019,3.981,1.421,3.96,3.458C315.691,410.81,314.042,412.25,311.709,412.231z"/>
	<polygon fill="#89BCD9" points="289.264,423.502 292.185,423.502 295.106,423.502 292.185,414.456 	"/>
</g>
</svg>
