<?xml version="1.0" encoding="utf-8"?>
<!-- Generator: Adobe Illustrator 16.0.0, SVG Export Plug-In . SVG Version: 6.00 Build 0)  -->
<!DOCTYPE svg PUBLIC "-//W3C//DTD SVG 1.1//EN" "http://www.w3.org/Graphics/SVG/1.1/DTD/svg11.dtd">
<svg version="1.1" id="Ebene_1" xmlns="http://www.w3.org/2000/svg" xmlns:xlink="http://www.w3.org/1999/xlink" x="0px" y="0px"
	 width="63px" height="59px" viewBox="5.272 2.5 63 59" enable-background="new 5.272 2.5 63 59" xml:space="preserve">
<g>
	<path fill="#89BCD9" fill-opacity="0.12" d="M67.495,39.575c2.452,13.995-11.719,24.122-28.566,20.797
		C22.081,57.045,3.624,42.927,5.977,27.431C8.131,13.235,22.065,5.245,32.571,7.318C49.42,10.645,64.425,22.055,67.495,39.575z"/>
	<path fill="#F8F5EC" d="M19.394,19.764c0,8.054,9.067,17.865,16.233,23.577c6.289-5.272,15.429-13.692,16.086-23.577
		c0.497-7.465-5.776-16.987-16.086-16.768C23.269,3.259,19.394,13.1,19.394,19.764z"/>
	<path fill="#89BCD9" d="M39.33,17.899c-0.064,2.166-1.77,3.873-3.807,3.811c-2.037-0.062-3.635-1.869-3.569-4.035
		c0.066-2.166,1.771-3.873,3.808-3.811C37.798,13.926,39.396,15.732,39.33,17.899z"/>
</g>
</svg>
