<?xml version="1.0" encoding="utf-8"?>
<!-- Generator: Adobe Illustrator 16.0.0, SVG Export Plug-In . SVG Version: 6.00 Build 0)  -->
<!DOCTYPE svg PUBLIC "-//W3C//DTD SVG 1.1//EN" "http://www.w3.org/Graphics/SVG/1.1/DTD/svg11.dtd">
<svg version="1.1" id="a" xmlns="http://www.w3.org/2000/svg" xmlns:xlink="http://www.w3.org/1999/xlink" x="0px" y="0px"
	 width="60px" height="60px" viewBox="267.64 390.946 60 60" enable-background="new 267.64 390.946 60 60" xml:space="preserve">
<g>
	<path fill="#89BCD9" d="M289.004,413.436h-3.55v6.77h3.385c2.352,0,4.004-0.949,4.004-3.344
		C292.844,414.674,291.44,413.436,289.004,413.436z"/>
	<path fill="#89BCD9" d="M316.88,390.946H278.4c-5.943,0-10.76,4.818-10.76,10.76v38.48c0,5.94,4.817,10.759,10.76,10.759h38.48
		c5.942,0,10.76-4.818,10.76-10.759v-38.48C327.64,395.763,322.823,390.946,316.88,390.946z M289.253,426.768h-3.798v7.762h-7.678
		v-27.658h10.815c7.843,0,12.259,3.674,12.259,9.825C300.851,423.881,294.867,426.768,289.253,426.768z M310.255,434.901
		c-2.889,0-5.613-0.496-7.843-1.732l0.04-6.4c2.189,1.445,5.243,2.354,7.35,2.354c1.445,0,2.105-0.413,2.105-1.158
		c0-0.822-0.908-1.154-2.643-1.69c-3.344-0.99-7.019-2.353-7.019-6.729c0-4.458,3.675-6.936,9.001-6.936
		c2.518,0,4.582,0.372,6.398,1.156l-0.042,6.111c-1.445-0.868-4.293-1.652-6.149-1.652c-1.363,0-1.9,0.413-1.9,1.033
		c0,0.742,0.661,0.949,2.643,1.568c3.839,1.155,7.059,2.394,7.059,6.895C319.255,432.01,315.746,434.901,310.255,434.901z"/>
</g>
</svg>
