<?xml version="1.0" encoding="utf-8"?>
<!-- Generator: Adobe Illustrator 16.0.0, SVG Export Plug-In . SVG Version: 6.00 Build 0)  -->
<!DOCTYPE svg PUBLIC "-//W3C//DTD SVG 1.1//EN" "http://www.w3.org/Graphics/SVG/1.1/DTD/svg11.dtd">
<svg version="1.1" id="Ebene_1" xmlns="http://www.w3.org/2000/svg" xmlns:xlink="http://www.w3.org/1999/xlink" x="0px" y="0px"
	 width="63px" height="50px" viewBox="4.5 6.5 63 50" enable-background="new 4.5 6.5 63 50" xml:space="preserve">
<g>
	<path fill="#89BCD9" fill-opacity="0.12" d="M64.667,28.702c6.188,11.865-3.109,25.197-18.633,27.22
		c-15.522,2.021-35.573-5.188-38.046-19.836C5.722,22.67,15.437,11.332,25.116,10.07C40.639,8.048,56.92,13.849,64.667,28.702z"/>
	<path fill="#89BCD9" stroke="#F8F5EC" stroke-width="1.5" d="M26.775,27.245h26.473c0.69,0,1.25,0.56,1.25,1.25v17.038H25.525
		V28.495C25.525,27.804,26.084,27.245,26.775,27.245z"/>
	<path fill="#F8F5EC" d="M21.4,47.85h37.09v1.496c0,1.656-1.343,3-3,3H24.4c-1.657,0-3-1.344-3-3V47.85z"/>
	<path fill="#140754" d="M37.696,48.975h5.619c0.311,0,0.563,0.252,0.563,0.563l0,0c0,0.311-0.252,0.562-0.563,0.562h-5.619
		c-0.311,0-0.563-0.251-0.563-0.562l0,0C37.134,49.227,37.386,48.975,37.696,48.975z"/>
	<path fill="none" stroke="#89BCD9" stroke-width="2" stroke-linecap="round" d="M27.897,7.871c-12.797-1.264-21.5,7-21.5,19.5"/>
	<path fill="none" stroke="#89BCD9" stroke-width="2" stroke-linecap="round" d="M27.397,18.874c-6.5-1-9,2.5-9.774,8.515"/>
	<path fill="none" stroke="#89BCD9" stroke-width="2" stroke-linecap="round" d="M27.904,13.373
		c-10.063-0.966-15.758,5.003-16.162,13.88"/>
</g>
</svg>
